<svg width="16" height="16" viewBox="0 0 16 16" fill="none" xmlns="http://www.w3.org/2000/svg">
<g clip-path="url(#clip0_1080_80)">
<path d="M15.2396 2.76028C15.1772 2.69793 15.0973 2.66659 15.0002 2.66659H11.7813L11.0521 0.9271C10.948 0.670095 10.7604 0.451327 10.4898 0.27076C10.2188 0.0902289 9.94437 0 9.66668 0H6.33325C6.05555 0 5.78118 0.0902289 5.51035 0.27076C5.23948 0.451327 5.05198 0.670058 4.94778 0.9271L4.21861 2.66659H0.999853C0.902546 2.66659 0.822789 2.69793 0.760252 2.76028C0.697898 2.82278 0.666557 2.90269 0.666557 2.99988V3.66662C0.666557 3.76382 0.697753 3.84372 0.760252 3.90611C0.822789 3.96858 0.902692 3.99981 0.999853 3.99981H1.99978V13.9166C1.99978 14.4932 2.16298 14.9844 2.48934 15.3905C2.81578 15.797 3.20814 16 3.66651 16H12.3334C12.7919 16 13.1842 15.79 13.5106 15.3699C13.8369 14.9496 14 14.4514 14 13.8751V3.99981H15.0001C15.0973 3.99981 15.1772 3.96858 15.2396 3.90611C15.3019 3.84376 15.3334 3.76382 15.3334 3.66662V2.99988C15.3334 2.90269 15.302 2.82278 15.2396 2.76028ZM6.17705 1.44768C6.22561 1.38521 6.28468 1.3469 6.35412 1.33311H9.65621C9.72564 1.34701 9.78482 1.38529 9.83331 1.44768L10.3335 2.66644H5.66662L6.17705 1.44768ZM12.6668 13.8752C12.6668 14.0279 12.6426 14.1686 12.5939 14.297C12.5452 14.4253 12.4947 14.5191 12.4428 14.5781C12.3906 14.6373 12.3544 14.6667 12.3334 14.6667H3.66655C3.64572 14.6667 3.60945 14.6373 3.55724 14.5781C3.5051 14.5191 3.45471 14.4253 3.40608 14.297C3.35752 14.1686 3.33322 14.0277 3.33322 13.8752V3.99981H12.6668V13.8752H12.6668Z" fill="#8A0000"/>
<path d="M4.99999 12.6668H5.66662C5.76393 12.6668 5.84387 12.6356 5.90622 12.5731C5.96858 12.5105 5.99992 12.4308 5.99992 12.3334V6.33322C5.99992 6.23606 5.96858 6.15615 5.90622 6.09362C5.84369 6.03126 5.76396 6.00003 5.66662 6.00003H4.99999C4.90268 6.00003 4.82289 6.03123 4.76039 6.09362C4.69796 6.15615 4.66669 6.23606 4.66669 6.33322V12.3334C4.66669 12.4308 4.69785 12.5105 4.76039 12.5731C4.82289 12.6356 4.90268 12.6668 4.99999 12.6668Z" fill="#8A0000"/>
<path d="M7.66669 12.6668H8.33331C8.43058 12.6668 8.51048 12.6356 8.5728 12.5731C8.63548 12.5105 8.66653 12.4308 8.66653 12.3334V6.33322C8.66653 6.23606 8.63545 6.15615 8.5728 6.09362C8.51048 6.03126 8.43058 6.00003 8.33331 6.00003H7.66669C7.56949 6.00003 7.48959 6.03123 7.42709 6.09362C7.36455 6.15615 7.33339 6.23606 7.33339 6.33322V12.3334C7.33339 12.4308 7.36455 12.5105 7.42709 12.5731C7.48955 12.6356 7.56949 12.6668 7.66669 12.6668Z" fill="#8A0000"/>
<path d="M10.3335 12.6668H11C11.0974 12.6668 11.1773 12.6356 11.2397 12.5731C11.3021 12.5105 11.3332 12.4308 11.3332 12.3334V6.33322C11.3332 6.23606 11.3021 6.15615 11.2397 6.09362C11.1773 6.03126 11.0974 6.00003 11 6.00003H10.3335C10.236 6.00003 10.1564 6.03123 10.0937 6.09362C10.0313 6.15615 10.0001 6.23606 10.0001 6.33322V12.3334C10.0001 12.4308 10.0313 12.5105 10.0937 12.5731C10.1564 12.6356 10.236 12.6668 10.3335 12.6668Z" fill="#8A0000"/>
</g>
<defs>
<clipPath id="clip0_1080_80">
<rect width="16" height="16" fill="white"/>
</clipPath>
</defs>
</svg>
